<?xml version="1.0" encoding="utf-8"?>
<!-- Generator: Adobe Illustrator 24.0.0, SVG Export Plug-In . SVG Version: 6.00 Build 0)  -->
<svg version="1.1" id="Layer_1" xmlns="http://www.w3.org/2000/svg" xmlns:xlink="http://www.w3.org/1999/xlink" x="0px" y="0px"
	 viewBox="0 0 73.31 40.31" style="enable-background:new 0 0 73.31 40.31;" xml:space="preserve">
<style type="text/css">
	.st0{fill:#71529C;}
	.st1{fill:none;stroke:#AC86B8;stroke-width:0.5;stroke-linecap:round;stroke-miterlimit:10;}
	.st2{fill:#71529C;stroke:#AC86B8;stroke-width:0.5;stroke-linecap:round;stroke-miterlimit:10;}
	.st3{fill:none;stroke:#FFFFFF;stroke-width:0.5;stroke-linecap:round;stroke-miterlimit:10;}
	.st4{fill:none;stroke:#FFFFFF;stroke-width:0.5;stroke-miterlimit:10;}
</style>
<path class="st0" d="M25.78,32.91c0,0,3.86,2.43,5.97,2.82c1.15,0.21,4.03,0.62,5.12,0.64c1.67,0.03,5.79-0.41,8.07-1.21
	c2.22-0.78,3.26-1.79,3.26-1.79s-1.23,2.45-3.71,3.56c-2.06,0.92-5.54,1.77-7.15,1.77c-1.26,0-3.85-0.59-4.88-0.89
	C30.07,37.14,25.78,32.91,25.78,32.91z"/>
<g>
	<path class="st1" d="M24.6,31.62c0,0,4.68,4.76,12.6,4.76c8.89,0,11.61-3.84,11.61-3.84"/>
	<path class="st1" d="M24.6,31.62c0,0,4.68,7.09,12.6,7.09c8.89,0,11.61-6.17,11.61-6.17"/>
</g>
<path class="st2" d="M4.16,1.68h64.57c1.62,0,2.93,1.31,2.93,2.93v21.21c0,1.61-1.3,2.92-2.91,2.93l-26.1,0.06
	c-1.04,0.01-2.04-0.43-2.74-1.21l-1.02-1.14c-1.17-1.3-3.19-1.35-4.42-0.12l-1.35,1.35c-0.76,0.76-1.8,1.2-2.88,1.2L4.18,29.2
	c-1.63,0.01-2.95-1.3-2.95-2.93V4.61C1.23,3,2.54,1.68,4.16,1.68z"/>
<g id="Font">
	<line class="st3" x1="8.98" y1="11.71" x2="5.24" y2="20.26"/>
	<line class="st3" x1="5.24" y1="11.74" x2="8.98" y2="20.26"/>
	<line class="st3" x1="18.96" y1="11.63" x2="18.96" y2="20.18"/>
	<path class="st3" d="M20.52,20.15v-8.52c0-0.07,0.1-0.1,0.13-0.03l3.48,8.54c0.03,0.07,0.13,0.05,0.13-0.03v-8.52"/>
	<polyline class="st3" points="25.82,11.59 29.01,11.59 29.57,11.59 	"/>
	<polyline class="st3" points="41.81,15.87 44.99,15.87 45.55,15.87 	"/>
	<line class="st3" x1="31.19" y1="11.59" x2="34.95" y2="11.59"/>
	<polyline class="st3" points="31.13,15.89 34.32,15.89 34.89,15.89 	"/>
	<polyline class="st3" points="31.19,20.22 34.37,20.22 34.93,20.22 	"/>
	<line class="st3" x1="27.7" y1="20.15" x2="27.7" y2="11.59"/>
	<polyline class="st3" points="52.49,11.59 55.67,11.59 56.23,11.59 	"/>
	<line class="st3" x1="54.36" y1="20.15" x2="54.36" y2="11.59"/>
	<line class="st3" x1="57.79" y1="20.17" x2="57.79" y2="11.61"/>
	<line class="st3" x1="31.13" y1="20.18" x2="31.13" y2="11.59"/>
	<line class="st3" x1="64.71" y1="11.59" x2="68.47" y2="11.59"/>
	<polyline class="st3" points="64.65,15.89 67.85,15.89 68.41,15.89 	"/>
	<polyline class="st3" points="64.71,20.22 67.89,20.22 68.46,20.22 	"/>
	<line class="st3" x1="64.65" y1="20.18" x2="64.65" y2="11.59"/>
	<polyline class="st3" points="47.17,11.58 50.36,11.58 50.93,11.58 	"/>
	<polyline class="st3" points="47.17,20.2 50.35,20.2 50.92,20.2 	"/>
	<line class="st3" x1="47.11" y1="20.17" x2="47.11" y2="11.58"/>
	<path class="st4" d="M40.48,20.15"/>
	<path class="st3" d="M10.54,20.1v-7.76c0-0.44,0.36-0.8,0.8-0.8h2.15c0.44,0,0.8,0.36,0.8,0.8v2.69c0,0.44-0.36,0.8-0.8,0.8h-2.25
		l3.05,4.28"/>
	<path class="st3" d="M36.5,20.15v-7.76c0-0.44,0.36-0.8,0.8-0.8h2.15c0.44,0,0.8,0.36,0.8,0.8v2.69c0,0.44-0.36,0.8-0.8,0.8H37.2
		l3.05,4.28"/>
	<path class="st3" d="M41.81,20.18v-7.76c0-0.44,0.36-0.8,0.8-0.8h2.15c0.44,0,0.8,0.36,0.8,0.8v7.76"/>
	<path class="st3" d="M63.1,11.59l-1.08,7.77c0,0.44-0.36,0.8-0.8,0.8l0,0c-0.44,0-0.76-0.28-0.8-0.8l-1.08-7.77"/>
</g>
</svg>
